# xmcd CD database file
#
# Track frame offsets:
#	150
#	19625
#	36260
#	56323
#	72688
#	89024
#	103156
#	122893
#	140040
#	160221
#
# Disc length: 2385 seconds
#
# Revision: 0
# Processed by: cddbd v1.5.1PL0 Copyright (c) Steve Scherf et al.
# Submitted via: CDex 1.51
#
DISCID=92094f0a
DTITLE=Malford Milligan Band - Rides Again
DYEAR=2004
DGENRE=Blues
TTITLE0=Palace Of The King
TTITLE1=Evergreen
TTITLE2=No Beginner At The Blues
TTITLE3=Can't Go On
TTITLE4=These Arms Of Mine
TTITLE5=Blow Wind Blow
TTITLE6=Today I Started Loving You Again
TTITLE7=Ain't Nobody
TTITLE8=Stingy
TTITLE9=Drive
EXTD=YEAR: 2004
EXTT0=
EXTT1=
EXTT2=
EXTT3=
EXTT4=
EXTT5=
EXTT6=
EXTT7=
EXTT8=
EXTT9=
PLAYORDER=
